<?xml version="1.0" encoding="UTF-8"?>
<svg version="1.1" xmlns="http://www.w3.org/2000/svg" width="1428" height="720">
<path d="M0 0 C471.24 0 942.48 0 1428 0 C1428 237.6 1428 475.2 1428 720 C956.76 720 485.52 720 0 720 C0 482.4 0 244.8 0 0 Z " fill="#0E2954" transform="translate(0,0)"/>
<path d="M0 0 C0.68929673 -0.00292886 1.37859346 -0.00585773 2.08877797 -0.00887535 C4.40220882 -0.01626124 6.71537582 -0.00939969 9.02880538 -0.0026266 C10.7098145 -0.00501615 12.39082257 -0.00828115 14.07182848 -0.0123432 C18.71131756 -0.02099136 23.35072609 -0.0171251 27.99021648 -0.01128747 C33.03002778 -0.00712865 38.06982408 -0.01451259 43.10963178 -0.02043998 C51.94928995 -0.02921943 60.78892496 -0.03050792 69.62858641 -0.02693671 C82.77333554 -0.02164021 95.91806215 -0.02771437 109.06280882 -0.03601964 C133.21902358 -0.05086201 157.37523035 -0.05310728 181.53144805 -0.05069926 C184.95503154 -0.05036082 188.37861504 -0.05003873 191.80219853 -0.04973358 C192.48218864 -0.04967254 193.16217876 -0.04961149 193.86277463 -0.0495486 C208.92684276 -0.04827715 223.99090946 -0.05087727 239.05497716 -0.05425965 C242.49378718 -0.05503039 245.9325972 -0.05577511 249.37140722 -0.05652466 C250.75152122 -0.05682635 252.13163522 -0.05712823 253.51174923 -0.0574303 C254.19584267 -0.05757998 254.8799361 -0.05772966 255.58475965 -0.05788388 C256.96847814 -0.05818741 258.35219663 -0.05849209 259.73591513 -0.05879792 C299.00432171 -0.06747242 338.27272705 -0.07211379 377.54113448 -0.06785029 C378.26843426 -0.06777223 378.99573405 -0.06769418 379.74507323 -0.06761376 C387.85541757 -0.06674094 395.9657619 -0.06581168 404.07610624 -0.06486312 C404.80836452 -0.06477761 405.5406228 -0.0646921 406.29507072 -0.064604 C412.37988078 -0.06389317 412.37988078 -0.06389317 415.17901636 -0.06356178 C462.02073655 -0.05802551 508.86243703 -0.06556891 555.70415366 -0.08433264 C567.50708826 -0.08905476 579.31002288 -0.09373523 591.1129576 -0.09816951 C591.83968674 -0.09844283 592.56641588 -0.09871615 593.31516712 -0.09899775 C615.70881465 -0.10736737 638.10246053 -0.11204856 660.4961096 -0.11287707 C661.19904139 -0.11290344 661.90197317 -0.1129298 662.62620592 -0.11295697 C678.05623693 -0.11349772 693.48626782 -0.11312537 708.91629879 -0.11191725 C714.4372399 -0.11149162 719.95818102 -0.1111265 725.47912214 -0.11078781 C726.85261828 -0.11070251 728.22611443 -0.11061358 729.59961057 -0.11052099 C751.4957076 -0.10907153 773.39179124 -0.11620295 795.28788506 -0.12752496 C817.95024998 -0.13916732 840.61259651 -0.1397463 863.27496253 -0.12768153 C876.34631649 -0.12103475 889.41760751 -0.12272575 902.48895649 -0.13627005 C911.21195413 -0.1444823 919.93490438 -0.14185918 928.65789814 -0.13029478 C933.63344345 -0.12400624 938.60886549 -0.1225198 943.58440392 -0.13415811 C948.10844558 -0.14464336 952.63225875 -0.14138867 957.15628795 -0.12705358 C958.7849626 -0.12431916 960.41365534 -0.12663757 962.04231301 -0.13456073 C979.6137091 -0.21422599 979.6137091 -0.21422599 985.98442709 4.86513025 C986.65345053 5.70624353 986.65345053 5.70624353 987.33598959 6.564349 C987.79747397 7.11735681 988.25895834 7.67036462 988.73442709 8.24013025 C992.66661865 14.68942531 992.29473532 21.36807344 992.27348959 28.689349 C992.28960288 29.79600915 992.30571616 30.90266931 992.32231772 32.04286462 C992.32794293 41.4538386 990.73821439 47.31701432 983.96098959 54.251849 C979.45660745 56.97529901 976.12684024 57.62703122 970.89402974 57.62789649 C970.20170684 57.63210344 969.50938394 57.63631039 968.79608156 57.64064482 C966.47222497 57.65109831 964.14896563 57.64016815 961.82511771 57.62937242 C960.1366802 57.63250161 958.44824471 57.63694519 956.75981373 57.64258552 C952.09968074 57.65430922 947.43973325 57.64725616 942.77960316 57.63725166 C937.71747766 57.6296643 932.65538134 57.63941225 927.59325993 57.64698166 C918.71448079 57.65783734 909.83575632 57.6574754 900.95697463 57.64984018 C887.75416903 57.63851726 874.55140977 57.64428115 861.34860452 57.6534651 C839.13960577 57.66836632 816.93062493 57.66889266 794.72162497 57.66073495 C793.70681278 57.66036237 793.70681278 57.66036237 792.67149934 57.65998227 C791.99387824 57.65973348 791.31625715 57.65948469 790.61810209 57.65922836 C769.98597097 57.65166317 749.35384874 57.64970261 728.72171652 57.65329629 C727.34086694 57.65352873 725.96001736 57.6537602 724.57916778 57.6539907 C719.03030611 57.65492208 713.48144445 57.65587808 707.93258279 57.65686999 C692.42057506 57.65962121 676.9085673 57.66133287 661.39655936 57.66222841 C660.33693041 57.66228981 660.33693041 57.66228981 659.25589482 57.66235246 C636.74146675 57.66358055 614.22704176 57.66019827 591.71261466 57.65367967 C590.9822252 57.65346892 590.25183575 57.65325817 589.49931328 57.65304104 C577.63776234 57.64960607 565.77621146 57.64594774 553.91466059 57.64227052 C506.86840882 57.62770117 459.82218266 57.62837739 412.775931 57.64296228 C400.92040887 57.64662576 389.06488674 57.65025887 377.20936453 57.65367967 C376.11442902 57.65399669 376.11442902 57.65399669 374.9973736 57.65432011 C352.50672193 57.66078726 330.0160724 57.66353175 307.52541983 57.66222841 C306.81951724 57.66218765 306.11361466 57.6621469 305.38632108 57.66210491 C289.89163669 57.66116753 274.39695252 57.65926674 258.90226835 57.6564969 C253.35832451 57.65550944 247.81438066 57.65457021 242.27043681 57.65364476 C240.89120879 57.6534126 239.51198078 57.65317641 238.13275276 57.65293617 C217.50532471 57.64935324 196.87790666 57.6524089 176.25047985 57.65998227 C175.57393839 57.66023065 174.89739693 57.66047904 174.20035422 57.66073495 C173.52505713 57.660983 172.84976005 57.66123105 172.15399941 57.66148661 C149.39443688 57.66975512 126.63489494 57.6667244 103.87533474 57.65089272 C90.7457956 57.64206173 77.61631753 57.64154062 64.48677993 57.65283124 C55.72754753 57.6595348 46.96836431 57.65541464 38.20913922 57.64231694 C33.21126043 57.63514917 28.21350336 57.6328053 23.21562821 57.64353488 C18.67365934 57.65318674 14.13192078 57.64916563 9.58996888 57.6339929 C7.95256349 57.63095829 6.31513926 57.63300401 4.67774872 57.64061072 C2.46086758 57.65018295 0.24479295 57.6413673 -1.97205055 57.62789649 C-3.81606758 57.62759157 -3.81606758 57.62759157 -5.69733748 57.6272805 C-10.98111247 57.033657 -14.91605507 54.97258047 -18.28901041 50.876849 C-18.76854166 50.31223962 -19.24807291 49.74763025 -19.74213541 49.1659115 C-23.92605357 42.99085156 -23.37143148 36.6228894 -23.35151041 29.439349 C-23.36762369 28.28886071 -23.38373697 27.13837243 -23.40033853 25.95302087 C-23.40455614 18.59328398 -23.19565062 12.21102486 -18.42572916 6.2284115 C-17.86498697 5.78239587 -17.30424478 5.33638025 -16.72651041 4.876849 C-16.17350259 4.41536462 -15.62049478 3.95388025 -15.05072916 3.4784115 C-10.22052655 0.53339476 -5.56951417 0.00163484 0 0 Z " fill="#13366F" transform="translate(235.03901040554047,608.7481510043144)"/>
<path d="M0 0 C23.97934819 20.28565336 37.63806508 48.00612463 46.39501953 77.67529297 C46.6320459 78.47483398 46.86907227 79.274375 47.11328125 80.09814453 C54.69066643 106.30800078 56.61538195 133.52329739 56.58251953 160.67529297 C56.58211166 161.95238632 56.58211166 161.95238632 56.58169556 163.25527954 C56.56138716 177.14346238 56.08587655 190.87706469 54.39501953 204.67529297 C54.29318359 205.52994141 54.19134766 206.38458984 54.08642578 207.26513672 C49.53877807 244.15161258 37.46672074 279.9430029 13.39501953 308.67529297 C12.73888672 309.46677734 12.08275391 310.25826172 11.40673828 311.07373047 C7.86704212 315.25101165 7.86704212 315.25101165 6.39501953 316.67529297 C5.73501953 316.67529297 5.07501953 316.67529297 4.39501953 316.67529297 C4.06501953 317.66529297 3.73501953 318.65529297 3.39501953 319.67529297 C1.53412274 321.34624176 -0.30165181 322.86183753 -2.29248047 324.36279297 C-2.87553955 324.80341064 -3.45859863 325.24402832 -4.05932617 325.69799805 C-31.1467264 345.74839359 -64.88292181 353.15258622 -98.14868164 348.84643555 C-129.61167235 344.13260247 -158.11182523 328.01852939 -177.33544922 302.44042969 C-202.69684812 267.17833084 -213.90607081 221.69612537 -213.60498047 178.67529297 C-212.86439896 178.6649855 -212.12381744 178.65467804 -211.36079407 178.64405823 C-204.37210739 178.54596846 -197.38350315 178.443438 -190.39495564 178.33595371 C-186.80231504 178.28085442 -183.20966613 178.22745576 -179.61694336 178.17797852 C-176.14798862 178.13014258 -172.67912832 178.07779387 -169.21028709 178.02235222 C-167.24670762 177.99213694 -165.28305851 177.96656199 -163.31941223 177.9410553 C-162.11854477 177.92111008 -160.91767731 177.90116486 -159.68041992 177.88061523 C-158.62562943 177.86507095 -157.57083893 177.84952667 -156.48408508 177.83351135 C-153.76156891 177.68389813 -151.25857389 177.28499595 -148.60498047 176.67529297 C-148.5653418 177.36228271 -148.52570313 178.04927246 -148.48486328 178.75708008 C-146.70982688 208.33693391 -143.68832074 238.11629968 -129.60498047 264.67529297 C-129.12287109 265.59568359 -128.64076172 266.51607422 -128.14404297 267.46435547 C-122.43684995 277.64901484 -115.12143031 285.51656867 -104.60498047 290.67529297 C-103.70908203 291.16126953 -102.81318359 291.64724609 -101.89013672 292.14794922 C-89.50497106 297.99062264 -73.18798654 297.91687336 -60.29248047 293.55029297 C-42.97847231 286.66687223 -32.17252288 274.5238913 -24.72607422 257.51123047 C-14.12000379 232.0085164 -10.04774512 204.18268288 -9.60498047 176.67529297 C-9.5845166 175.64065918 -9.56405273 174.60602539 -9.54296875 173.54003906 C-8.79473917 130.28494867 -9.01104547 73.69155967 -41.06982422 40.08544922 C-53.53185555 28.2378786 -67.92615183 26.26252611 -84.41357422 26.46044922 C-90.18606474 26.62643796 -95.25134655 27.46400939 -100.60498047 29.67529297 C-101.85408203 30.16835937 -101.85408203 30.16835937 -103.12841797 30.67138672 C-118.94763842 37.7048555 -128.03609686 52.29804174 -134.60498047 67.67529297 C-142.44225067 88.25626845 -145.70529552 108.59211404 -147.22998047 130.42529297 C-147.36488384 132.29772585 -147.5002966 134.17012211 -147.63623047 136.04248047 C-147.96501791 140.5863506 -148.28691989 145.13065991 -148.60498047 149.67529297 C-149.46922638 149.51452774 -150.33347229 149.35376251 -151.22390747 149.18812561 C-154.43355376 148.70129454 -157.45936436 148.51868205 -160.70214844 148.4699707 C-161.88291962 148.45002548 -163.0636908 148.43008026 -164.28024292 148.40953064 C-165.53982819 148.39281815 -166.79941345 148.37610565 -168.09716797 148.35888672 C-170.04878342 148.32771507 -170.04878342 148.32771507 -172.03982544 148.2959137 C-175.48220766 148.24098181 -178.92464677 148.19144645 -182.36712646 148.14306641 C-185.8865662 148.0926391 -189.40592433 148.03706437 -192.92529297 147.98193359 C-199.81845126 147.87470589 -206.71168343 147.77318385 -213.60498047 147.67529297 C-213.7421391 137.88187614 -213.6534635 128.33469564 -212.29248047 118.61279297 C-212.08836548 117.08029907 -212.08836548 117.08029907 -211.88012695 115.5168457 C-210.73925337 107.1690704 -209.34637842 98.91905371 -207.60498047 90.67529297 C-207.35361328 89.38494141 -207.10224609 88.09458984 -206.84326172 86.76513672 C-199.49619864 50.92928519 -180.60336884 15.46516711 -150.60498047 -6.32470703 C-146.08178927 -9.25839262 -141.36872568 -11.80737248 -136.60498047 -14.32470703 C-135.76451172 -14.79650391 -134.92404297 -15.26830078 -134.05810547 -15.75439453 C-92.47098202 -38.22260552 -35.62383474 -29.40293996 0 0 Z " fill="#13366F" transform="translate(792.60498046875,154.32470703125)"/>
<path d="M0 0 C0.87881332 -0.00700928 1.75762665 -0.01401855 2.66307068 -0.02124023 C5.55630469 -0.03878713 8.44855361 -0.02720923 11.34179688 -0.01367188 C13.35909207 -0.01636774 15.376386 -0.02025095 17.39367676 -0.02526855 C21.61690673 -0.03115913 25.83979777 -0.02261472 30.06298828 -0.00390625 C35.47021717 0.01888288 40.87665185 0.00575745 46.28385162 -0.01819611 C50.44807901 -0.0326659 54.61211882 -0.02804264 58.77635193 -0.01768494 C60.76981196 -0.01502093 62.76328914 -0.01827593 64.75672913 -0.02760315 C67.54530809 -0.03778809 70.33260967 -0.02224051 73.12109375 0 C73.94101303 -0.00809692 74.76093231 -0.01619385 75.60569763 -0.02453613 C81.78959372 0.06660876 85.16352616 2.02014647 89.87304688 6.08007812 C92.71727257 9.52308818 92.39335585 13.77982622 92.33789062 18.01367188 C91.78740691 22.98353187 89.18980733 25.59283983 85.45736694 28.64929199 C81.18327939 31.00008431 78.12404672 31.08372934 73.33642578 31.03515625 C72.05228539 31.04567017 72.05228539 31.04567017 70.74220276 31.05639648 C67.92350433 31.07394323 65.10581732 31.06236355 62.28710938 31.04882812 C60.31944589 31.05152449 58.3517837 31.05540812 56.38412476 31.0604248 C52.2634409 31.06631578 48.14310435 31.05777157 44.02246094 31.0390625 C38.75442574 31.01630334 33.48720712 31.02937946 28.21920204 31.05335236 C24.15611689 31.06784675 20.09322341 31.06318714 16.03013229 31.05284119 C14.08856483 31.0501824 12.14697968 31.05341366 10.20543289 31.0627594 C7.48430966 31.07298171 4.76448426 31.05734386 2.04345703 31.03515625 C1.24942978 31.04325317 0.45540253 31.0513501 -0.36268616 31.05969238 C-5.96528243 30.97556762 -10.24858886 29.62878193 -14.93945312 26.51757812 C-18.28300072 23.00685315 -19.21220359 20.24720904 -19.43945312 15.51757812 C-19.22732894 10.80842119 -18.16334476 8.08082677 -14.93945312 4.51757812 C-9.89578416 0.36591227 -6.25448044 -0.06176468 0 0 Z " fill="#0B1E3D" transform="translate(320.939453125,411.482421875)"/>
<path d="M0 0 C0.64428955 -0.0065712 1.2885791 -0.0131424 1.95239258 -0.01991272 C4.08243941 -0.0396065 6.21241586 -0.0512995 8.3425293 -0.0612793 C9.43594163 -0.06739259 9.43594163 -0.06739259 10.5514431 -0.07362938 C14.40978078 -0.09447348 18.26808307 -0.1087823 22.12646484 -0.11816406 C26.10447933 -0.12922481 30.08193388 -0.16362487 34.05975056 -0.20333576 C37.12504594 -0.22952324 40.1902083 -0.23785774 43.2556057 -0.24144554 C44.72158782 -0.24630609 46.18756421 -0.25790504 47.65343666 -0.27648354 C49.7095092 -0.30092244 51.76413815 -0.29990258 53.8203125 -0.29296875 C54.98818802 -0.29883499 56.15606354 -0.30470123 57.35932922 -0.31074524 C62.34959677 0.43934717 66.3986973 3.29659842 69.60424805 7.17700195 C71.23480208 12.06866406 71.74336841 17.42370207 69.7331543 22.2824707 C66.90007099 26.63891684 63.64170364 28.80945813 58.60424805 30.17700195 C53.80819371 30.64389022 49.0164946 30.64872028 44.2019043 30.64575195 C42.79617514 30.65286444 41.39044885 30.66056501 39.98472595 30.66882324 C37.04702674 30.68222428 34.1095961 30.6838565 31.171875 30.67797852 C27.4248363 30.67208295 23.67909356 30.70268602 19.93230534 30.7430954 C17.03158237 30.76906253 14.13116793 30.77184184 11.23034477 30.76820374 C9.8497536 30.76988625 8.46914683 30.77944456 7.08867073 30.79734802 C-0.96135567 30.89028152 -7.2045274 30.73019427 -13.39575195 25.17700195 C-16.84215539 21.4074982 -16.90148491 17.53212914 -16.75512695 12.61450195 C-16.05713428 7.88029076 -13.01970529 4.17070253 -9.39575195 1.17700195 C-6.05846019 0.06457137 -3.51699943 0.02970606 0 0 Z " fill="#0D203F" transform="translate(580.395751953125,302.822998046875)"/>
<path d="M0 0 C1.2015976 -0.00953201 2.40319519 -0.01906403 3.64120483 -0.02888489 C5.58345444 -0.02751778 5.58345444 -0.02751778 7.56494141 -0.02612305 C8.9124871 -0.03001261 10.26003157 -0.03434781 11.60757446 -0.03910828 C14.43031795 -0.04656278 17.25293635 -0.04628526 20.07568359 -0.04101562 C23.68256467 -0.03522772 27.28893111 -0.05213863 30.89572716 -0.0753603 C33.6788123 -0.09013654 36.46177469 -0.09096399 39.24489212 -0.08785057 C41.21792107 -0.08860976 43.19093104 -0.10245417 45.16390991 -0.11653137 C46.37181183 -0.11030258 47.57971375 -0.10407379 48.82421875 -0.09765625 C49.88248871 -0.09828568 50.94075867 -0.0989151 52.03109741 -0.0995636 C58.12628898 0.65812596 62.07738868 3.7442408 66.04150391 8.2746582 C67.91815382 13.90460793 67.97899541 19.36495328 65.35400391 24.7121582 C62.21273551 28.19302319 59.69466152 30.06565983 54.97499084 30.66233826 C53.83170822 30.66774124 52.6884256 30.67314423 51.51049805 30.67871094 C49.55805931 30.6977372 49.55805931 30.6977372 47.56617737 30.71714783 C46.15300334 30.71509619 44.73983041 30.712108 43.32666016 30.70825195 C41.86844134 30.71281632 40.41022467 30.71812265 38.95201111 30.72413635 C35.89980313 30.73305774 32.84785693 30.73065578 29.7956543 30.72070312 C25.89383661 30.70921673 21.99292439 30.72942363 18.09122562 30.75862026 C15.08078824 30.77701105 12.07056669 30.77668413 9.0600872 30.77098274 C7.6220415 30.77082987 6.18398086 30.77684643 4.74598885 30.78927422 C2.73134494 30.80423321 0.71655167 30.79085188 -1.2980957 30.77636719 C-2.44217392 30.77620102 -3.58625214 30.77603485 -4.76499939 30.77586365 C-8.69379935 30.15925555 -10.85879634 28.72225595 -13.95849609 26.2746582 C-16.98652177 22.03542225 -17.65216156 17.92502142 -17.51318359 12.8137207 C-16.51061482 8.22449742 -13.49885706 5.21056729 -9.95849609 2.2746582 C-6.59159043 0.18936843 -3.92841207 0.01712889 0 0 Z " fill="#122543" transform="translate(1160.95849609375,82.725341796875)"/>
<path d="M0 0 C1.38952912 -0.00269796 2.7790564 -0.0065829 4.1685791 -0.01159668 C7.07367008 -0.01747762 9.97826742 -0.00897511 12.88330078 0.00976562 C16.59569851 0.03255543 20.30693939 0.01942463 24.01929474 -0.00452423 C26.88650126 -0.01902092 29.75343627 -0.01435876 32.62065125 -0.00401306 C33.98890828 -0.00135641 35.35719045 -0.00457803 36.72541809 -0.01393127 C49.94927622 -0.08450482 49.94927622 -0.08450482 54.84375 4.53125 C58.49796278 8.66628025 59.50345869 11.90852544 59.22265625 17.2890625 C58.35002221 22.45289694 56.14990997 25.52150011 52.0390625 28.69946289 C46.52768114 31.68033542 40.38206148 31.08198322 34.28125 31.02734375 C32.97599365 31.02879898 31.6707373 31.03025421 30.32592773 31.03175354 C27.57222135 31.03313263 24.81903892 31.02066324 22.06542969 30.99780273 C18.55170818 30.96941868 15.03885604 30.97216157 11.52507019 30.98489285 C8.15204067 30.99355594 4.77926491 30.97838963 1.40625 30.96484375 C-0.47525757 30.96924721 -0.47525757 30.96924721 -2.39477539 30.97373962 C-8.71311938 30.90571362 -13.63962765 30.74783707 -19.15625 27.53125 C-23.65182746 22.68075852 -24.5174371 19.5355665 -24.43359375 13.0703125 C-23.90183105 8.20206246 -21.32806167 5.63431 -17.89257812 2.40039062 C-12.65940893 -0.96180761 -5.98557705 -0.0409176 0 0 Z " fill="#0C1F3D" transform="translate(1084.15625,192.46875)"/>
<path d="M0 0 C2.35716006 1.10192442 3.96696094 2.33186538 6 4 C6.639375 3.34 7.27875 2.68 7.9375 2 C12.0198208 -0.66600542 15.24325533 -0.99482006 20 0 C23.06583403 1.72732021 25.40227558 3.80455115 27 7 C27.71764513 13.93723629 26.26196548 17.56847189 22 23 C16.87617622 29.27327474 11.55683516 34.28004812 5 39 C2.23310053 36.35041851 -0.51012931 33.67749965 -3.25 31 C-4.41595703 29.88431641 -4.41595703 29.88431641 -5.60546875 28.74609375 C-10.99173867 23.45189682 -15.26805216 18.574674 -16.5 10.875 C-15.8485402 7.12910617 -14.3521055 4.95693263 -12 2 C-7.97307426 -0.68461716 -4.73355175 -0.6923222 0 0 Z " fill="#13366F" transform="translate(708,678)"/>
<path d="M0 0 C0.87269531 -0.02578125 1.74539063 -0.0515625 2.64453125 -0.078125 C5.65751602 0.31064723 7.01266931 1.16135142 9.1875 3.25 C9.1875 3.91 9.1875 4.57 9.1875 5.25 C10.156875 4.425 11.12625 3.6 12.125 2.75 C15.80212921 0.13200334 18.62944989 -0.43543627 23.1015625 -0.18359375 C26.24565659 0.4699539 28.01897329 1.94594037 30.1875 4.25 C32.08612005 8.0472401 31.77211415 12.12190826 31.1875 16.25 C28.64049614 22.60623973 23.24288837 27.51557681 18.5625 32.375 C18.00022705 32.96837158 17.4379541 33.56174316 16.85864258 34.1730957 C15.2109375 35.8203125 15.2109375 35.8203125 12.1875 38.25 C3.98371797 37.19674648 -2.97358079 27.29030605 -7.8125 21.25 C-10.64642478 16.99911284 -11.39036065 13.40346279 -11.24609375 8.37109375 C-10.54506013 4.94171309 -8.48655214 3.33706508 -5.8125 1.25 C-4.16400947 -0.39849053 -2.26203365 0.0397429 0 0 Z " fill="#13366F" transform="translate(651.8125,677.75)"/>
<path d="M0 0 C4.02658297 0.03853189 6.57559577 0.58759645 9.75 3.25 C9.75 3.91 9.75 4.57 9.75 5.25 C10.719375 4.425 11.68875 3.6 12.6875 2.75 C16.36462921 0.13200334 19.19194989 -0.43543627 23.6640625 -0.18359375 C26.80815659 0.4699539 28.58147329 1.94594037 30.75 4.25 C32.64862005 8.0472401 32.33461415 12.12190826 31.75 16.25 C29.20299614 22.60623973 23.80538837 27.51557681 19.125 32.375 C18.56272705 32.96837158 18.0004541 33.56174316 17.42114258 34.1730957 C15.7734375 35.8203125 15.7734375 35.8203125 12.75 38.25 C4.54621797 37.19674648 -2.41108079 27.29030605 -7.25 21.25 C-10.08392478 16.99911284 -10.82786065 13.40346279 -10.68359375 8.37109375 C-9.98256013 4.94171309 -7.92405214 3.33706508 -5.25 1.25 C-3.68966377 -0.31033623 -2.16052864 0.04292441 0 0 Z " fill="#13366F" transform="translate(754.25,677.75)"/>
<path d="M0 0 C2.97 0.33 5.94 0.66 9 1 C9.33 2.32 9.66 3.64 10 5 C8.35 5 6.7 5 5 5 C5 5.66 5 6.32 5 7 C6.32 7.33 7.64 7.66 9 8 C7.35 8.33 5.7 8.66 4 9 C3.01 7.68 2.02 6.36 1 5 C0.67 6.32 0.34 7.64 0 9 C-0.99 9 -1.98 9 -3 9 C-3.33 8.01 -3.66 7.02 -4 6 C-4.33 6.99 -4.66 7.98 -5 9 C-5.99 9 -6.98 9 -8 9 C-8.66 6.36 -9.32 3.72 -10 1 C-6.88365565 1 -4.88144034 1.10575989 -2 2 C-1.67 2.33 -1.34 2.66 -1 3 C-0.67 2.01 -0.34 1.02 0 0 Z " fill="#C1CCD3" transform="translate(594,315)"/>
<path d="M0 0 C0.66 0 1.32 0 2 0 C2 0.66 2 1.32 2 2 C3.32 2 4.64 2 6 2 C6 1.34 6 0.68 6 0 C6.66 0 7.32 0 8 0 C8 0.66 8 1.32 8 2 C9.65 2 11.3 2 13 2 C13.33 2.99 13.66 3.98 14 5 C14.66 5 15.32 5 16 5 C16 4.01 16 3.02 16 2 C16.99 2.33 17.98 2.66 19 3 C17.68 6.3 16.36 9.6 15 13 C14.34 13 13.68 13 13 13 C12.89042969 12.36191406 12.78085938 11.72382813 12.66796875 11.06640625 C12.50941406 10.24011719 12.35085938 9.41382813 12.1875 8.5625 C12.03667969 7.73878906 11.88585938 6.91507813 11.73046875 6.06640625 C11.48941406 5.38449219 11.24835938 4.70257813 11 4 C10.01 3.67 9.02 3.34 8 3 C8 4.65 8 6.3 8 8 C8.66 8 9.32 8 10 8 C10 8.66 10 9.32 10 10 C8.68 9.67 7.36 9.34 6 9 C6 7.35 6 5.7 6 4 C5.01 4 4.02 4 3 4 C3.33 5.98 3.66 7.96 4 10 C2.68 9.67 1.36 9.34 0 9 C-1.125 2.25 -1.125 2.25 0 0 Z " fill="#C3CED5" transform="translate(1104,204)"/>
<path d="M0 0 C0.66 0 1.32 0 2 0 C2 3.96 2 7.92 2 12 C-4.75 12 -4.75 12 -8 10 C-8 8.68 -8 7.36 -8 6 C-9.32 6 -10.64 6 -12 6 C-11.67 7.65 -11.34 9.3 -11 11 C-11.99 11 -12.98 11 -14 11 C-14.04254356 9.00045254 -14.04080783 6.99958364 -14 5 C-13 4 -13 4 -10.6875 3.9375 C-9.800625 3.958125 -8.91375 3.97875 -8 4 C-6.68 4 -5.36 4 -4 4 C-2.68 4 -1.36 4 0 4 C0 2.68 0 1.36 0 0 Z " fill="#939EB0" transform="translate(382,421)"/>
<path d="M0 0 C0.99 0 1.98 0 3 0 C3 3.96 3 7.92 3 12 C1.02 12 -0.96 12 -3 12 C-5 10 -5 10 -5.25 7.5 C-5 5 -5 5 -3 3 C-2.01 3 -1.02 3 0 3 C0 2.01 0 1.02 0 0 Z " fill="#A7ACAF" transform="translate(1169,93)"/>
<path d="M0 0 C0.99 0 1.98 0 3 0 C3 1.32 3 2.64 3 4 C4.65 4.33 6.3 4.66 8 5 C8.125 7.375 8.125 7.375 8 10 C7.34 10.66 6.68 11.32 6 12 C4.02 12 2.04 12 0 12 C0 8.04 0 4.08 0 0 Z " fill="#A6B4BE" transform="translate(359,421)"/>
<path d="M0 0 C1.4540625 0.0309375 1.4540625 0.0309375 2.9375 0.0625 C2.0625 3.9375 2.0625 3.9375 0.9375 5.0625 C1.5975 5.3925 2.2575 5.7225 2.9375 6.0625 C2.6075 7.3825 2.2775 8.7025 1.9375 10.0625 C-0.0425 10.0625 -2.0225 10.0625 -4.0625 10.0625 C-4.08939216 8.58343108 -4.10884621 7.10422517 -4.125 5.625 C-4.13660156 4.80128906 -4.14820313 3.97757812 -4.16015625 3.12890625 C-4.00103255 -0.23815127 -3.43619093 0.07012635 0 0 Z " fill="#C0C7CE" transform="translate(1205.0625,96.9375)"/>
<path d="M0 0 C3.63 0 7.26 0 11 0 C11 2.64 11 5.28 11 8 C10.34 8 9.68 8 9 8 C9 6.02 9 4.04 9 2 C8.34 2 7.68 2 7 2 C7 3.98 7 5.96 7 8 C6.34 8 5.68 8 5 8 C5 6.02 5 4.04 5 2 C4.01 2 3.02 2 2 2 C2 3.98 2 5.96 2 8 C1.34 8 0.68 8 0 8 C0 5.36 0 2.72 0 0 Z " fill="#C8DEE4" transform="translate(338,425)"/>
<path d="M0 0 C1.99954746 -0.04254356 4.00041636 -0.04080783 6 0 C7 1 7 1 7.1875 3.4375 C7 6 7 6 5 8 C4.01 8 3.02 8 2 8 C2 8.99 2 9.98 2 11 C1.34 11 0.68 11 0 11 C0 7.37 0 3.74 0 0 Z " fill="#BABAC0" transform="translate(1081,206)"/>
<path d="M0 0 C0.66 0 1.32 0 2 0 C2 1.32 2 2.64 2 4 C2.804375 3.979375 3.60875 3.95875 4.4375 3.9375 C7 4 7 4 8 5 C8.04092937 7.33297433 8.04241723 9.66705225 8 12 C7.01 12 6.02 12 5 12 C5 9.69 5 7.38 5 5 C4.34 5 3.68 5 3 5 C3 7.31 3 9.62 3 12 C2.01 12 1.02 12 0 12 C0 8.04 0 4.08 0 0 Z " fill="#BAC2C7" transform="translate(623,312)"/>
<path d="M0 0 C2.5625 0.1875 2.5625 0.1875 4.5625 2.1875 C4.1875 4.8125 4.1875 4.8125 3.5625 7.1875 C1.1875 7.8125 1.1875 7.8125 -1.4375 8.1875 C-3.4375 6.1875 -3.4375 6.1875 -3.625 3.625 C-3.37291261 0.34786389 -3.27713611 0.25208739 0 0 Z " fill="#ADB1BB" transform="translate(332.4375,424.8125)"/>
<path d="M0 0 C2.97 0.33 5.94 0.66 9 1 C9.33 2.32 9.66 3.64 10 5 C8.35 5 6.7 5 5 5 C5 5.66 5 6.32 5 7 C6.32 7.33 7.64 7.66 9 8 C7.35 8.33 5.7 8.66 4 9 C2.00476166 5.87701826 0.91458218 3.65832872 0 0 Z " fill="#99A0AB" transform="translate(594,315)"/>
<path d="M0 0 C1.99954746 -0.04254356 4.00041636 -0.04080783 6 0 C7 1 7 1 7.0625 4.5625 C7.041875 5.696875 7.02125 6.83125 7 8 C5.02 8 3.04 8 1 8 C0.67 6.68 0.34 5.36 0 4 C1.32 3.67 2.64 3.34 4 3 C4 2.34 4 1.68 4 1 C2.68 1.33 1.36 1.66 0 2 C0 1.34 0 0.68 0 0 Z " fill="#C5C6C8" transform="translate(605,316)"/>
<path d="M0 0 C1.2065625 0.0309375 1.2065625 0.0309375 2.4375 0.0625 C2.7675 1.3825 3.0975 2.7025 3.4375 4.0625 C1.7875 4.0625 0.1375 4.0625 -1.5625 4.0625 C-1.5625 4.7225 -1.5625 5.3825 -1.5625 6.0625 C0.0875 6.0625 1.7375 6.0625 3.4375 6.0625 C3.1075 6.7225 2.7775 7.3825 2.4375 8.0625 C-2.4375 7.1875 -2.4375 7.1875 -3.5625 6.0625 C-3.6875 3.5625 -3.6875 3.5625 -3.5625 1.0625 C-2.5625 0.0625 -2.5625 0.0625 0 0 Z " fill="#EDEDEA" transform="translate(354.5625,424.9375)"/>
<path d="M0 0 C1.65 0 3.3 0 5 0 C5.33 1.32 5.66 2.64 6 4 C4.35 4 2.7 4 1 4 C1 4.66 1 5.32 1 6 C2.65 6 4.3 6 6 6 C5.67 6.66 5.34 7.32 5 8 C3.35 7.67 1.7 7.34 0 7 C-1.125 2.25 -1.125 2.25 0 0 Z " fill="#D6DCE0" transform="translate(1096,206)"/>
<path d="M0 0 C0.99 0.33 1.98 0.66 3 1 C3 1.66 3 2.32 3 3 C3.66 3 4.32 3 5 3 C5.33 2.01 5.66 1.02 6 0 C6.66 0.33 7.32 0.66 8 1 C6.68 4.3 5.36 7.6 4 11 C3.34 11 2.68 11 2 11 C1.855625 9.9275 1.71125 8.855 1.5625 7.75 C1.16250558 5.08337051 0.72408076 2.58600271 0 0 Z " fill="#D8DDDF" transform="translate(385,425)"/>
<path d="M0 0 C0.99 0 1.98 0 3 0 C3 3.96 3 7.92 3 12 C2.01 12 1.02 12 0 12 C0 8.04 0 4.08 0 0 Z " fill="#A3ACB7" transform="translate(1188,93)"/>
<path d="M0 0 C1.65 0 3.3 0 5 0 C5 3.11257569 4.82638376 5.10765685 4 8 C2.35 7.67 0.7 7.34 -1 7 C-0.01 6.34 0.98 5.68 2 5 C1.01 4.34 0.02 3.68 -1 3 C-0.67 2.01 -0.34 1.02 0 0 Z " fill="#D0D5DA" transform="translate(323,425)"/>
<path d="M0 0 C0.66 0 1.32 0 2 0 C2 0.99 2 1.98 2 3 C2.66 3.33 3.32 3.66 4 4 C3.34 4 2.68 4 2 4 C2 5.65 2 7.3 2 9 C2.66 9 3.32 9 4 9 C4 9.66 4 10.32 4 11 C2.68 10.67 1.36 10.34 0 10 C-1.125 3.375 -1.125 3.375 0 0 Z " fill="#E2E5E3" transform="translate(618,313)"/>
<path d="M0 0 C2.5 0.125 2.5 0.125 3.5 1.125 C3.54063832 2.79117115 3.542721 4.45888095 3.5 6.125 C3.17 4.805 2.84 3.485 2.5 2.125 C1.18 2.125 -0.14 2.125 -1.5 2.125 C-1.17 3.775 -0.84 5.425 -0.5 7.125 C-1.49 7.125 -2.48 7.125 -3.5 7.125 C-3.54254356 5.12545254 -3.54080783 3.12458364 -3.5 1.125 C-2.5 0.125 -2.5 0.125 0 0 Z " fill="#E2E7E9" transform="translate(371.5,424.875)"/>
<path d="M0 0 C1.98 0.99 1.98 0.99 4 2 C4.33 1.34 4.66 0.68 5 0 C5.66 0.33 6.32 0.66 7 1 C6.34 3.31 5.68 5.62 5 8 C4.01 8 3.02 8 2 8 C1.34 5.36 0.68 2.72 0 0 Z " fill="#DDDEDB" transform="translate(589,316)"/>
<path d="M0 0 C0.66 0 1.32 0 2 0 C2 0.66 2 1.32 2 2 C2.66 2.33 3.32 2.66 4 3 C3.34 3 2.68 3 2 3 C2 4.65 2 6.3 2 8 C2.66 8 3.32 8 4 8 C4 8.66 4 9.32 4 10 C2.68 9.67 1.36 9.34 0 9 C-1.125 2.25 -1.125 2.25 0 0 Z " fill="#D6E6F1" transform="translate(1104,204)"/>
<path d="M0 0 C0.66 0 1.32 0 2 0 C2 3.96 2 7.92 2 12 C1.01 11.67 0.02 11.34 -1 11 C-0.67 7.37 -0.34 3.74 0 0 Z " fill="#E5E9DE" transform="translate(382,421)"/>
<path d="M0 0 C1.32 0 2.64 0 4 0 C4.33 1.65 4.66 3.3 5 5 C3.35 5.33 1.7 5.66 0 6 C0 4.02 0 2.04 0 0 Z " fill="#6E788D" transform="translate(370,427)"/>
<path d="M0 0 C0 0.66 0 1.32 0 2 C-0.99 2.33 -1.98 2.66 -3 3 C-3.33 3.99 -3.66 4.98 -4 6 C-6.97 5.505 -6.97 5.505 -10 5 C-10 4.34 -10 3.68 -10 3 C-8.35 3 -6.7 3 -5 3 C-5 2.34 -5 1.68 -5 1 C-2 0 -2 0 0 0 Z " fill="#243856" transform="translate(609,317)"/>
<path d="M0 0 C1.65 0 3.3 0 5 0 C5 0.66 5 1.32 5 2 C4.01 2 3.02 2 2 2 C2 3.98 2 5.96 2 8 C1.34 8 0.68 8 0 8 C0 5.36 0 2.72 0 0 Z " fill="#CCDFE9" transform="translate(1089,206)"/>
<path d="M0 0 C0.33 0.66 0.66 1.32 1 2 C3.02463255 2.65213292 3.02463255 2.65213292 5 3 C4.01 3 3.02 3 2 3 C2 3.66 2 4.32 2 5 C3.32 5.33 4.64 5.66 6 6 C4.34385343 6.38218767 2.67542976 6.71395102 1 7 C0 6 0 6 -0.0625 2.9375 C-0.041875 1.968125 -0.02125 0.99875 0 0 Z " fill="#DCDFE1" transform="translate(597,317)"/>
<path d="M0 0 C1.65 0 3.3 0 5 0 C4.34 0.66 3.68 1.32 3 2 C2.60235737 3.98821313 2.26224651 5.98944339 2 8 C1.34 8 0.68 8 0 8 C0 5.36 0 2.72 0 0 Z " fill="#D9E7EE" transform="translate(1182,97)"/>
<path d="M0 0 C0 2.64 0 5.28 0 8 C-0.33 7.34 -0.66 6.68 -1 6 C-1.66 6 -2.32 6 -3 6 C-3 4.35 -3 2.7 -3 1 C-1 0 -1 0 0 0 Z " fill="#262541" transform="translate(623,316)"/>
<path d="M0 0 C1.65 0 3.3 0 5 0 C5.33 0.66 5.66 1.32 6 2 C3.69 2.33 1.38 2.66 -1 3 C-0.67 2.01 -0.34 1.02 0 0 Z " fill="#BCBFC6" transform="translate(352,425)"/>
</svg>
